<?xml version="1.0" encoding="utf-8"?>
<!-- Generator: Adobe Illustrator 16.0.0, SVG Export Plug-In . SVG Version: 6.00 Build 0)  -->
<!DOCTYPE svg PUBLIC "-//W3C//DTD SVG 1.1//EN" "http://www.w3.org/Graphics/SVG/1.1/DTD/svg11.dtd">
<svg version="1.1" id="Layer_1" xmlns="http://www.w3.org/2000/svg" xmlns:xlink="http://www.w3.org/1999/xlink" x="0px" y="0px"
	 width="80px" height="80px" viewBox="0 0 80 80" enable-background="new 0 0 80 80" xml:space="preserve">
<circle fill="none" stroke="#27303E" stroke-width="2" stroke-miterlimit="10" cx="39.881" cy="40" r="38.5"/>
<path fill="#74CE8B" d="M62.16,33.309h-9.276l-4.977,4.774v-4.774h-2.116c-1.481,0-2.691-1.21-2.691-2.692v-9.989
	c0-1.482,1.21-2.692,2.691-2.692H62.16c1.482,0,2.692,1.21,2.692,2.692v9.989C64.853,32.099,63.643,33.309,62.16,33.309
	L62.16,33.309z M62.16,33.309"/>
<path fill="#27303E" d="M37.341,30.56v-7.217c0-4.151-3.372-7.522-7.523-7.522h-1.549c-4.152,0-7.523,3.371-7.523,7.522v7.217
	c0,1.245,0.532,2.398,1.448,3.213v6.018c-1.527,0.77-5.961,3.133-10.068,6.516c-1.041,0.859-1.641,2.138-1.641,3.495v4.944
	c0,0.565,0.464,1.028,1.03,1.028s1.029-0.463,1.029-1.028v-4.944c0-0.746,0.328-1.437,0.894-1.911
	c4.39-3.608,9.152-6.007,10.067-6.46c0.464-0.226,0.758-0.69,0.758-1.21v-6.957c0-0.339-0.17-0.667-0.453-0.849
	c-0.622-0.418-0.995-1.108-0.995-1.855v-7.217c0-3.021,2.455-5.475,5.475-5.475h1.549c3.021,0,5.476,2.455,5.476,5.475v7.217
	c0,0.747-0.374,1.437-0.996,1.855c-0.283,0.192-0.453,0.509-0.453,0.849v6.957c0,0.521,0.294,0.985,0.758,1.21
	c0.917,0.441,5.679,2.852,10.068,6.46c0.565,0.463,0.894,1.165,0.894,1.911v4.944c0,0.565,0.464,1.028,1.029,1.028
	s1.029-0.463,1.029-1.028v-4.944c0-1.357-0.6-2.636-1.641-3.495c-4.117-3.383-8.54-5.747-10.067-6.516v-6.018
	C36.81,32.958,37.341,31.793,37.341,30.56L37.341,30.56z M37.341,30.56"/>
<path fill="#27303E" d="M31.436,41.193c-0.565,0-1.029,0.464-1.029,1.029c0,0.396-0.17,0.747-0.441,0.996
	c-0.057,0.033-0.113,0.079-0.17,0.135c-0.215,0.147-0.475,0.238-0.758,0.238c-0.747,0-1.369-0.611-1.369-1.369
	c0-0.565-0.464-1.029-1.03-1.029s-1.029,0.464-1.029,1.029c0,0.803,0.283,1.539,0.747,2.127l-0.724,16.686
	c-0.012,0.306,0.113,0.6,0.339,0.803l2.296,2.07c0.192,0.181,0.441,0.261,0.69,0.261c0.249,0,0.498-0.091,0.69-0.261l2.33-2.104
	c0.227-0.203,0.351-0.497,0.339-0.803L31.572,44.52c0.543-0.611,0.882-1.403,0.882-2.285C32.466,41.657,32.002,41.193,31.436,41.193
	L31.436,41.193z M28.97,61.759l-1.244-1.119l0.645-15.068c0.215,0.045,0.441,0.067,0.667,0.067c0.181,0,0.351-0.022,0.52-0.045
	l0.679,15.011L28.97,61.759z M28.97,61.759"/>
<path fill="#27303E" d="M59.705,22.63h-11.47c-0.566,0-1.03,0.464-1.03,1.029s0.464,1.029,1.03,1.029h11.47
	c0.565,0,1.029-0.464,1.029-1.029S60.271,22.63,59.705,22.63L59.705,22.63z M59.705,22.63"/>
<path fill="#27303E" d="M59.705,26.725h-11.47c-0.566,0-1.03,0.463-1.03,1.029c0,0.565,0.464,1.029,1.03,1.029h11.47
	c0.565,0,1.029-0.464,1.029-1.029C60.734,27.188,60.271,26.725,59.705,26.725L59.705,26.725z M59.705,26.725"/>
<path fill="#27303E" d="M62.16,16.918H45.791c-2.047,0-3.722,1.663-3.722,3.721v9.988c0,2.048,1.663,3.722,3.722,3.722h1.086v3.744
	c0,0.407,0.249,0.781,0.623,0.939c0.124,0.057,0.271,0.079,0.407,0.079c0.26,0,0.52-0.102,0.712-0.283l4.684-4.479h8.857
	c2.048,0,3.722-1.663,3.722-3.722v-10C65.87,18.581,64.208,16.918,62.16,16.918L62.16,16.918z M63.823,30.617
	c0,0.917-0.747,1.663-1.663,1.663h-9.276c-0.26,0-0.521,0.102-0.712,0.283l-3.247,3.111v-2.364c0-0.565-0.464-1.029-1.029-1.029
	H45.78c-0.916,0-1.663-0.746-1.663-1.663v-9.989c0-0.917,0.747-1.663,1.663-1.663h16.38c0.916,0,1.663,0.747,1.663,1.663V30.617z
	 M63.823,30.617"/>
</svg>
