<?xml version="1.0" encoding="utf-8"?>
<!-- Generator: Adobe Illustrator 16.0.0, SVG Export Plug-In . SVG Version: 6.00 Build 0)  -->
<!DOCTYPE svg PUBLIC "-//W3C//DTD SVG 1.1//EN" "http://www.w3.org/Graphics/SVG/1.1/DTD/svg11.dtd">
<svg version="1.1" id="Layer_1" xmlns="http://www.w3.org/2000/svg" xmlns:xlink="http://www.w3.org/1999/xlink" x="0px" y="0px"
	 width="80px" height="80px" viewBox="0 0 80 80" enable-background="new 0 0 80 80" xml:space="preserve">
<path fill="#8EFDAE" d="M46.854,10.963v28.148h28.148C73.236,24.393,61.572,12.725,46.854,10.963L46.854,10.963z M46.854,10.963"/>
<rect x="6.854" y="45.564" fill="#27303E" width="2.578" height="2.578"/>
<rect x="12.014" y="45.564" fill="#27303E" width="12.902" height="2.578"/>
<rect x="6.854" y="50.721" fill="#27303E" width="18.063" height="2.586"/>
<rect x="31.369" y="61.049" fill="#27303E" width="2.578" height="2.578"/>
<rect x="36.529" y="61.049" fill="#27303E" width="2.582" height="2.578"/>
<rect x="41.689" y="61.049" fill="#27303E" width="2.585" height="2.578"/>
<path fill="#27303E" d="M70.08,17.193v-0.02c0-2.844-2.664-5.16-5.938-5.16h-6.195c-1.845,0-3.352-1.16-3.352-2.582V8.143
	c0-1.422,1.507-2.582,3.352-2.582h6.195c1.852,0,3.352,1.16,3.352,2.582h2.586c0-2.848-2.664-5.16-5.938-5.16h-1.805V0.4h-2.586
	v2.582h-1.805c-2.711,0-4.984,1.602-5.688,3.773c-3.031-0.777-6.141-1.195-9.281-1.195h-1.289v38.713H80.4v-1.296
	C80.4,33.439,76.643,24.1,70.08,17.193L70.08,17.193z M44.274,41.689V8.166c2.618,0.098,5.204,0.508,7.735,1.188v0.078
	c0,2.848,2.664,5.161,5.938,5.161h6.195c1.852,0,3.352,1.16,3.352,2.582v1.29c0,1.425-1.5,2.582-3.352,2.582h-6.195
	c-1.845,0-3.352-1.156-3.352-2.582H52.01c0,2.847,2.664,5.164,5.938,5.164h1.805v2.578h2.586v-2.578h1.805
	c2.438,0,4.531-1.289,5.445-3.121c4.984,5.918,7.914,13.441,8.204,21.184H44.274z M44.274,41.689"/>
<rect x="46.854" y="31.369" fill="#27303E" width="2.578" height="2.578"/>
<rect x="52.01" y="31.369" fill="#27303E" width="21.938" height="2.578"/>
<rect x="46.854" y="36.529" fill="#27303E" width="27.094" height="2.582"/>
<path fill="#27303E" d="M77.822,57.174h-18.07v7.742h2.586v2.578h-2.586v5.164h-2.578v-5.164h-4.656
	c3.016-4.594,4.656-10,4.656-15.484v-1.289H30.076V23.627h-1.289C13.135,23.627,0.4,36.361,0.4,52.01
	C0.4,67.666,13.135,80.4,28.787,80.4c4.496,0,8.914-1.086,12.902-3.148V80.4h18.063v-5.164h2.586V80.4H80.4v-7.742h-2.578V70.08
	H80.4v-7.742h-2.578V57.174z M54.596,72.658H52.01V70.08h2.586V72.658z M41.689,72.658V70.08h2.585v2.578H41.689z M49.432,70.08
	v2.578h-2.578V70.08H49.432z M52.01,75.236v2.586h-2.578v-2.586H52.01z M2.982,52.01c0-13.793,10.883-25.098,24.516-25.77v25.41
	L14.256,73.322C7.455,68.666,2.982,60.854,2.982,52.01L2.982,52.01z M16.451,74.674L29.51,53.306h25.055
	c-0.258,5.157-2.055,10.024-5.211,14.188H39.111v7.742h0.824c-3.477,1.688-7.277,2.586-11.148,2.586
	C24.322,77.822,20.119,76.681,16.451,74.674L16.451,74.674z M44.274,75.236h2.579v2.586h-2.579V75.236z M57.174,77.822h-2.578
	v-2.586h2.578V77.822z M75.236,62.338h-2.578v-2.586h2.578V62.338z M72.658,75.236v2.586H70.08v-2.586H72.658z M67.494,72.658V70.08
	h2.586v2.578H67.494z M70.08,67.494v-2.578h2.578v2.578H70.08z M67.494,62.338v-2.586h2.586v2.586H67.494z M62.338,59.752h2.578
	v2.586h-2.578V59.752z M64.916,64.916h2.578v2.578h-2.578V64.916z M62.338,70.08h2.578v2.578h-2.578V70.08z M64.916,75.236h2.578
	v2.586h-2.578V75.236z M77.822,77.822h-2.586v-2.586h2.586V77.822z M75.236,72.658h-2.578V70.08h2.578V72.658z M77.822,67.494
	h-2.586v-2.578h2.586V67.494z M77.822,67.494"/>
</svg>
