<?xml version="1.0" encoding="utf-8"?>
<!-- Generator: Adobe Illustrator 16.0.0, SVG Export Plug-In . SVG Version: 6.00 Build 0)  -->
<!DOCTYPE svg PUBLIC "-//W3C//DTD SVG 1.1//EN" "http://www.w3.org/Graphics/SVG/1.1/DTD/svg11.dtd">
<svg version="1.1" id="Layer_1" xmlns="http://www.w3.org/2000/svg" xmlns:xlink="http://www.w3.org/1999/xlink" x="0px" y="0px"
	 width="80px" height="80px" viewBox="0 0 80 80" enable-background="new 0 0 80 80" xml:space="preserve">
<path fill="#8EFDAE" d="M80,6.453c0,3.563-2.891,6.449-6.453,6.449s-6.453-2.887-6.453-6.449C67.094,2.89,69.984,0,73.547,0
	S80,2.89,80,6.453L80,6.453z M80,6.453"/>
<path fill="#8EFDAE" d="M68.39,38.711c0,3.563-2.89,6.453-6.452,6.453s-6.453-2.891-6.453-6.453s2.891-6.453,6.453-6.453
	S68.39,35.148,68.39,38.711L68.39,38.711z M68.39,38.711"/>
<path fill="#8EFDAE" d="M41.289,27.097c0,3.563-2.887,6.45-6.449,6.45c-3.566,0-6.453-2.887-6.453-6.45
	c0-3.565,2.887-6.453,6.453-6.453C38.402,20.645,41.289,23.532,41.289,27.097L41.289,27.097z M41.289,27.097"/>
<path fill="#8EFDAE" d="M56.773,15.484c0,3.563-2.891,6.453-6.453,6.453s-6.446-2.89-6.446-6.453s2.884-6.453,6.446-6.453
	S56.773,11.922,56.773,15.484L56.773,15.484z M56.773,15.484"/>
<path fill="#8EFDAE" d="M27.098,20.645v-1.289c0-5.977-4.52-10.895-10.324-11.539V0h-5.16v7.817
	C5.809,8.461,1.289,13.379,1.289,19.355c0,6.414,5.199,11.613,11.613,11.613h2.582c3.563,0,6.453,2.887,6.453,6.453
	c0,3.563-2.89,6.453-6.453,6.453h-2.582c-3.563,0-6.449-2.89-6.449-6.453v-1.292H1.289v1.292c0,5.977,4.52,10.891,10.324,11.532
	v7.82h5.16v-7.82c5.805-0.641,10.324-5.555,10.324-11.532c0-6.417-5.199-11.617-11.613-11.617h-2.582
	c-3.563,0-6.449-2.887-6.449-6.449s2.887-6.453,6.449-6.453h2.582c3.563,0,6.453,2.891,6.453,6.453v1.289H27.098z M27.098,20.645"/>
<path fill="#27303E" d="M5.164,19.355c0,4.27,3.469,7.742,7.739,7.742h2.582c5.691,0,10.32,4.629,10.32,10.324
	c0,5.266-3.942,9.672-9.172,10.25l-1.148,0.126v8.976h2.582v-6.711c5.958-1.204,10.321-6.453,10.321-12.641
	c0-7.117-5.789-12.906-12.902-12.906h-2.582c-2.844,0-5.16-2.313-5.16-5.16c0-2.848,2.316-5.164,5.16-5.164h2.582
	c2.844,0,5.16,2.316,5.16,5.164v1.289h2.582v-1.289c0-4.27-3.473-7.742-7.742-7.742h-2.582C8.633,11.613,5.164,15.086,5.164,19.355
	L5.164,19.355z M5.164,19.355"/>
<path fill="#27303E" d="M10.321,50.063v6.711h2.582v-8.976l-1.148-0.126c-5.23-0.578-9.172-4.984-9.172-10.25v-1.292H0v1.292
	C0,43.609,4.363,48.858,10.321,50.063L10.321,50.063z M10.321,50.063"/>
<path fill="#27303E" d="M12.902,32.258h2.582c2.844,0,5.16,2.313,5.16,5.164c0,2.844-2.316,5.157-5.16,5.157h-2.582
	c-2.844,0-5.16-2.313-5.16-5.157v-1.292H5.164v1.292c0,4.266,3.469,7.743,7.739,7.743h2.582c4.27,0,7.742-3.477,7.742-7.743
	c0-4.273-3.473-7.746-7.742-7.746h-2.582c-5.691,0-10.32-4.629-10.32-10.32c0-5.269,3.941-9.676,9.172-10.254l1.148-0.129V0h-2.582
	v6.715C4.363,7.918,0,13.16,0,19.355C0,26.469,5.789,32.258,12.902,32.258L12.902,32.258z M12.902,32.258"/>
<path fill="#27303E" d="M25.805,19.355v1.289h2.582v-1.289c0-6.195-4.363-11.438-10.321-12.641V0h-2.582v8.973l1.148,0.129
	C21.863,9.68,25.805,14.086,25.805,19.355L25.805,19.355z M25.805,19.355"/>
<path fill="#27303E" d="M23.227,61.938H0v10.32h2.582V80h23.223V69.68h-2.578V61.938z M20.645,69.68h-2.579v-5.164h2.579V69.68z
	 M12.902,69.68v-5.164h2.582v5.164H12.902z M10.321,69.68H7.742v-5.164h2.579V69.68z M12.902,72.258v5.164h-2.582v-5.164H12.902z
	 M15.484,72.258h2.582v5.164h-2.582V72.258z M2.582,64.516h2.582v5.164H2.582V64.516z M5.164,72.258h2.579v5.164H5.164V72.258z
	 M23.227,77.422h-2.582v-5.164h2.582V77.422z M23.227,77.422"/>
<path fill="#27303E" d="M77.422,64.516v-7.742H80v-10.32H56.773v7.742h-2.578v7.742h-2.586v-7.742H28.387v10.32h2.582v5.164h-2.582
	V80h23.223v-7.742h5.164V80H80V69.68h-5.164v-5.164H77.422z M49.031,61.938h-2.578v-5.164h2.578V61.938z M41.289,61.938v-5.164
	h2.585v5.164H41.289z M38.711,61.938h-2.582v-5.164h2.582V61.938z M41.289,64.516v5.164h-2.578v-5.164H41.289z M38.711,72.258v5.164
	h-2.582v-5.164H38.711z M41.289,72.258h2.585v5.164h-2.585V72.258z M43.874,69.68v-5.164h2.579v5.164H43.874z M30.969,56.773h2.578
	v5.164h-2.578V56.773z M33.547,64.516h2.582v5.164h-2.582V64.516z M30.969,72.258h2.578v5.164h-2.578V72.258z M49.031,77.422h-2.578
	v-5.164h2.578V77.422z M51.609,69.68h-2.578v-5.164h2.578V69.68z M74.836,61.938h-2.578v-5.164h2.578V61.938z M67.094,72.258v5.164
	h-2.578v-5.164H67.094z M69.68,72.258h2.578v5.164H69.68V72.258z M64.516,69.68v-5.164h2.578v5.164H64.516z M69.68,56.773v5.164
	h-2.586v-5.164H69.68z M69.68,54.195v-5.164h2.578v5.164H69.68z M67.094,54.195h-2.578v-5.164h2.578V54.195z M64.516,56.773v5.164
	h-2.578v-5.164H64.516z M77.422,54.195h-2.586v-5.164h2.586V54.195z M59.352,49.031h2.586v5.164h-2.586V49.031z M56.773,56.773
	h2.578v5.164h-2.578V56.773z M54.195,69.68v-5.164h2.578v2.578h2.578v-2.578h2.586v5.164H54.195z M59.352,72.258h2.586v5.164h-2.586
	V72.258z M77.422,77.422h-2.586v-5.164h2.586V77.422z M72.258,69.68H69.68v-5.164h2.578V69.68z M72.258,69.68"/>
<path fill="#27303E" d="M34.84,32.258c2.844,0,5.16-2.313,5.16-5.161c0-0.523-0.102-1.015-0.246-1.492l8.66-5.292l-0.031-0.052
	c0.602,0.243,1.25,0.383,1.938,0.383c0.375,0,0.734-0.043,1.078-0.117l7.156,14.313c-1.078,0.945-1.781,2.32-1.781,3.871
	c0,2.844,2.313,5.163,5.164,5.163c2.844,0,5.156-2.319,5.156-5.163c0-1.742-0.867-3.277-2.195-4.214l8.195-22.931
	c0.148,0.016,0.297,0.047,0.453,0.047c2.845,0,5.164-2.316,5.164-5.16c0-2.848-2.319-5.164-5.164-5.164
	c-2.844,0-5.157,2.316-5.157,5.164c0,1.773,0.899,3.34,2.267,4.266l-8.172,22.883c-0.188-0.016-0.359-0.055-0.547-0.055
	c-0.375,0-0.734,0.043-1.079,0.117l-7.155-14.309c1.078-0.949,1.781-2.324,1.781-3.871c0-2.848-2.313-5.164-5.164-5.164
	c-2.844,0-5.156,2.316-5.156,5.164c0,1.18,0.414,2.258,1.086,3.129l-7.828,4.781c-0.93-0.898-2.188-1.458-3.582-1.458
	c-2.848,0-5.164,2.313-5.164,5.16C29.676,29.945,31.992,32.258,34.84,32.258L34.84,32.258z M73.547,3.871
	c1.422,0,2.579,1.156,2.579,2.582c0,1.422-1.157,2.578-2.579,2.578s-2.578-1.156-2.578-2.578
	C70.969,5.027,72.125,3.871,73.547,3.871L73.547,3.871z M64.516,38.711c0,1.422-1.156,2.578-2.578,2.578s-2.586-1.156-2.586-2.578
	c0-1.426,1.164-2.582,2.586-2.582S64.516,37.285,64.516,38.711L64.516,38.711z M50.32,12.902c1.429,0,2.586,1.16,2.586,2.582
	s-1.157,2.579-2.586,2.579c-1.422,0-2.578-1.157-2.578-2.579S48.898,12.902,50.32,12.902L50.32,12.902z M34.84,24.516
	c1.422,0,2.582,1.156,2.582,2.582c0,1.422-1.16,2.579-2.582,2.579c-1.426,0-2.582-1.156-2.582-2.579
	C32.258,25.672,33.414,24.516,34.84,24.516L34.84,24.516z M34.84,24.516"/>
</svg>
