<?xml version="1.0" encoding="utf-8"?>
<!-- Generator: Adobe Illustrator 16.0.0, SVG Export Plug-In . SVG Version: 6.00 Build 0)  -->
<!DOCTYPE svg PUBLIC "-//W3C//DTD SVG 1.1//EN" "http://www.w3.org/Graphics/SVG/1.1/DTD/svg11.dtd">
<svg version="1.1" id="Layer_1" xmlns="http://www.w3.org/2000/svg" xmlns:xlink="http://www.w3.org/1999/xlink" x="0px" y="0px"
	 width="80px" height="80px" viewBox="0 0 80 80" enable-background="new 0 0 80 80" xml:space="preserve">
<path fill="#8EFDAE" d="M77.109,18.065c0,9.977-8.088,18.064-18.064,18.064S40.98,28.042,40.98,18.065
	C40.98,8.088,49.068,0,59.045,0S77.109,8.088,77.109,18.065L77.109,18.065z M77.109,18.065"/>
<path fill="#2E3847" d="M28.078,14.193h-2.581V6.452h-2.581v7.741h-2.581v18.065h7.743V14.193z M25.497,29.677h-2.581V16.774h2.581
	V29.677z M25.497,29.677"/>
<path fill="#2E3847" d="M12.594,19.355h2.581v-7.742h2.581V0h-7.743v11.613h2.581V19.355z M12.594,2.581h2.581v6.452h-2.581V2.581z
	 M12.594,2.581"/>
<path fill="#2E3847" d="M38.4,28.387V16.774h-2.581V9.032h-2.581v7.742h-2.58v11.613h2.58v7.742h2.581v-7.742H38.4z M33.238,19.355
	h2.581v6.452h-2.581V19.355z M33.238,19.355"/>
<path fill="#2E3847" d="M60.98,28.387h-3.871c-2.49,0-4.516-2.025-4.516-4.517h-2.58c0,3.914,3.184,7.097,7.096,7.097h0.646v2.58
	h2.581v-2.58h0.645c3.913,0,7.097-3.183,7.097-7.097c0-3.914-3.184-7.097-7.097-7.097h-3.871c-2.49,0-4.516-2.025-4.516-4.516
	s2.025-4.517,4.516-4.517h3.871c2.49,0,4.516,2.027,4.516,4.517h2.581c0-3.914-3.184-7.097-7.097-7.097h-0.645V2.581h-2.581v2.581
	h-0.646c-3.912,0-7.096,3.183-7.096,7.097c0,3.913,3.184,7.097,7.096,7.097h3.871c2.49,0,4.516,2.025,4.516,4.516
	C65.496,26.362,63.471,28.387,60.98,28.387L60.98,28.387z M60.98,28.387"/>
<path fill="#2E3847" d="M2.271,38.709h2.581v-6.452h2.58V14.193h-2.58V6.452H2.271v7.741H-0.31v18.065h2.581V38.709z M2.271,16.774
	h2.581v12.903H2.271V16.774z M2.271,16.774"/>
<path fill="#2E3847" d="M79.69,42.58c0-2.846-2.314-5.161-5.161-5.161H43.562c-2.847,0-5.162,2.315-5.162,5.161
	c0,2.361,1.601,4.335,3.769,4.946c-2.435,3.462-3.769,7.575-3.769,11.828C38.4,70.737,47.661,80,59.045,80
	c11.383,0,20.646-9.263,20.646-20.646c0-4.253-1.334-8.366-3.77-11.828C78.089,46.915,79.69,44.941,79.69,42.58L79.69,42.58z
	 M59.045,77.419c-9.961,0-18.064-8.103-18.064-18.064c0-4.253,1.524-8.348,4.276-11.612h22.82v-2.581H43.562
	c-1.424,0-2.581-1.157-2.581-2.581c0-1.423,1.157-2.581,2.581-2.581h30.968c1.423,0,2.58,1.158,2.58,2.581
	c0,1.424-1.157,2.581-2.58,2.581h-3.871v2.581h2.175c2.753,3.265,4.276,7.359,4.276,11.612
	C77.109,69.316,69.007,77.419,59.045,77.419L59.045,77.419z M59.045,77.419"/>
<path fill="#2E3847" d="M20.335,54.193H-0.31v2.581h23.226v-3.337l8.499,8.498l-8.499,8.498v-3.337H4.852v2.581h15.483v6.985
	l14.728-14.728L20.335,47.208V54.193z M20.335,54.193"/>
<rect x="-0.31" y="67.097" fill="#333333" width="2.581" height="2.581"/>
<rect x="-0.31" y="59.354" fill="#8EFDAE" width="23.226" height="5.161"/>
</svg>
