<?xml version="1.0" encoding="utf-8"?>
<!-- Generator: Adobe Illustrator 16.0.0, SVG Export Plug-In . SVG Version: 6.00 Build 0)  -->
<!DOCTYPE svg PUBLIC "-//W3C//DTD SVG 1.1//EN" "http://www.w3.org/Graphics/SVG/1.1/DTD/svg11.dtd">
<svg version="1.1" id="Layer_1" xmlns="http://www.w3.org/2000/svg" xmlns:xlink="http://www.w3.org/1999/xlink" x="0px" y="0px"
	 width="80px" height="80px" viewBox="0 0 80 80" enable-background="new 0 0 80 80" xml:space="preserve">
<path fill="#8EFCAD" d="M64.573,17.313c0,6.375-5.169,11.544-11.547,11.544c-6.372,0-11.541-5.168-11.541-11.544
	c0-6.375,5.169-11.543,11.541-11.543C59.404,5.77,64.573,10.938,64.573,17.313L64.573,17.313z M64.573,17.313"/>
<path fill="#8EFCAD" d="M38.919,17.313c0,6.375-5.168,11.544-11.543,11.544s-11.543-5.168-11.543-11.544
	C15.832,10.938,21,5.77,27.375,5.77S38.919,10.938,38.919,17.313L38.919,17.313z M38.919,17.313"/>
<path fill="#27303E" d="M27.375,57.075c0,7.069,5.753,12.825,12.826,12.825c7.07,0,12.825-5.756,12.825-12.825
	c0-7.075-5.755-12.826-12.825-12.826C33.129,44.249,27.375,50,27.375,57.075L27.375,57.075z M50.463,57.075
	c0,5.657-4.604,10.261-10.262,10.261s-10.262-4.604-10.262-10.261c0-5.658,4.604-10.262,10.262-10.262S50.463,51.417,50.463,57.075
	L50.463,57.075z M50.463,57.075"/>
<path fill="#27303E" d="M40.201,53.226c-2.123,0-3.849,1.729-3.849,3.85c0,2.12,1.726,3.849,3.849,3.849
	c2.12,0,3.849-1.729,3.849-3.849c0-0.743-0.225-1.435-0.588-2.022l2.87-3.59l-2.005-1.602l-2.875,3.59
	C41.06,53.318,40.645,53.226,40.201,53.226L40.201,53.226z M40.201,58.354c-0.706,0-1.282-0.571-1.282-1.279
	c0-0.709,0.576-1.285,1.282-1.285c0.708,0,1.284,0.576,1.284,1.285C41.485,57.783,40.909,58.354,40.201,58.354L40.201,58.354z
	 M40.201,58.354"/>
<path fill="#27303E" d="M69.701,17.313c0-9.193-7.479-16.674-16.675-16.674c-5.156,0-9.771,2.354-12.831,6.039
	c-3.152-3.803-7.819-6.039-12.82-6.039c-9.195,0-16.674,7.481-16.674,16.674c0,4.365,1.714,8.47,4.678,11.544h-0.83v3.849
	c0,2.121,1.726,3.846,3.849,3.846h7.693v2.566c-6.364,0-11.542,5.177-11.542,11.544v24.366h2.564v1.285
	c0,2.12,1.726,3.849,3.849,3.849h2.564c2.121,0,3.849-1.729,3.849-3.849v-1.285h25.651v1.285c0,2.12,1.729,3.849,3.85,3.849h2.563
	c2.12,0,3.849-1.729,3.849-3.849v-1.285h2.564V50.662c0-6.367-5.18-11.544-11.541-11.544v-2.566h7.692
	c2.12,0,3.849-1.726,3.849-3.846v-3.849h-0.83C67.989,25.783,69.701,21.678,69.701,17.313L69.701,17.313z M53.026,3.206
	c7.778,0,14.11,6.329,14.11,14.107c0,4.616-2.258,8.896-6.038,11.544h-6.787v-2.566h0.427c2.593,0,4.701-2.299,4.701-5.129
	c0-2.829-2.108-5.13-4.701-5.13h-3.423c-1.175,0-2.138-1.15-2.138-2.566c0-1.415,0.963-2.564,2.138-2.564h3.423
	c1.175,0,2.138,1.15,2.138,2.564h2.563c0-2.829-2.108-5.129-4.701-5.129h-0.427V5.77h-2.568v2.566h-0.428
	c-2.593,0-4.701,2.3-4.701,5.129s2.108,5.133,4.701,5.133h3.423c1.175,0,2.138,1.147,2.138,2.564c0,1.415-0.963,2.564-2.138,2.564
	h-3.423c-1.175,0-2.138-1.149-2.138-2.564h-2.563c0,2.83,2.108,5.129,4.701,5.129h0.428v2.566h-6.788
	c-3.78-2.647-6.036-6.928-6.036-11.544C38.919,9.535,45.248,3.206,53.026,3.206L53.026,3.206z M41.031,28.857h-1.646
	c0.285-0.297,0.568-0.6,0.83-0.918C40.478,28.252,40.748,28.56,41.031,28.857L41.031,28.857z M13.265,17.313
	c0-7.778,6.332-14.107,14.11-14.107c4.474,0,8.625,2.123,11.287,5.684c-1.458,2.478-2.31,5.35-2.31,8.423
	c0,3.019,0.835,5.906,2.316,8.424c-0.902,1.205-1.973,2.253-3.212,3.12h-6.799v-2.566h0.426c2.595,0,4.705-2.299,4.705-5.129
	c0-2.829-2.109-5.13-4.705-5.13h-3.419c-1.179,0-2.138-1.15-2.138-2.566c0-1.415,0.959-2.564,2.138-2.564h3.422
	c1.175,0,2.137,1.15,2.137,2.564h2.564c0-2.829-2.109-5.129-4.705-5.129h-0.426V5.77h-2.566v2.566h-0.427
	c-2.593,0-4.702,2.3-4.702,5.129s2.109,5.133,4.702,5.133h3.422c1.175,0,2.137,1.147,2.137,2.564c0,1.415-0.962,2.564-2.14,2.564
	h-3.419c-1.179,0-2.138-1.149-2.138-2.564h-2.564c0,2.83,2.109,5.129,4.702,5.129h0.427v2.566H19.3
	C15.524,26.209,13.265,21.929,13.265,17.313L13.265,17.313z M24.812,76.313c0,0.708-0.576,1.284-1.285,1.284h-2.564
	c-0.708,0-1.284-0.576-1.284-1.284v-1.285h5.133V76.313z M60.725,76.313c0,0.708-0.576,1.284-1.285,1.284h-2.563
	c-0.709,0-1.285-0.576-1.285-1.284v-1.285h5.134V76.313z M51.743,39.118h-2.565v2.566h5.134c4.949,0,8.977,4.028,8.977,8.978v21.803
	H17.114V50.662c0-4.949,4.028-8.978,8.978-8.978h20.522v-2.566H28.658v-2.566h23.085V39.118z M63.288,32.706
	c0,0.706-0.576,1.282-1.284,1.282H18.398c-0.708,0-1.285-0.576-1.285-1.282v-1.282h46.174V32.706z M63.288,32.706"/>
<rect x="58.155" y="67.336" fill="#27303E" width="2.569" height="2.564"/>
<rect x="53.026" y="67.336" fill="#27303E" width="2.564" height="2.564"/>
<rect x="19.678" y="67.336" fill="#27303E" width="2.566" height="2.564"/>
<rect x="24.812" y="67.336" fill="#27303E" width="2.564" height="2.564"/>
</svg>
