<?xml version="1.0" encoding="utf-8"?>
<!-- Generator: Adobe Illustrator 16.0.0, SVG Export Plug-In . SVG Version: 6.00 Build 0)  -->
<!DOCTYPE svg PUBLIC "-//W3C//DTD SVG 1.1//EN" "http://www.w3.org/Graphics/SVG/1.1/DTD/svg11.dtd">
<svg version="1.1" id="Layer_1" xmlns="http://www.w3.org/2000/svg" xmlns:xlink="http://www.w3.org/1999/xlink" x="0px" y="0px"
	 width="80px" height="80px" viewBox="0 0 80 80" enable-background="new 0 0 80 80" xml:space="preserve">
<path fill="#2E3847" d="M71.787,63.483c3.593-1.979,6.032-5.798,6.032-10.181c0-5.966-4.525-10.893-10.322-11.536V39.11
	c0-2.134-1.736-3.871-3.871-3.871H41.69v-5.162H39.11v5.162H17.174c-2.134,0-3.871,1.736-3.871,3.871v2.657
	c-5.797,0.646-10.323,5.57-10.323,11.536c0,4.383,2.44,8.202,6.032,10.181C3.954,65.654,0.4,70.685,0.4,76.529V80.4h28.387v-3.871
	c0-5.845-3.553-10.875-8.613-13.046c3.593-1.979,6.033-5.798,6.033-10.181c0-5.966-4.525-10.893-10.323-11.536V39.11
	c0-0.711,0.578-1.29,1.29-1.29h46.452c0.712,0,1.29,0.579,1.29,1.29v2.657c-5.797,0.646-10.322,5.57-10.322,11.536
	c0,4.383,2.44,8.202,6.032,10.181c-5.06,2.171-8.612,7.201-8.612,13.046V80.4H80.4v-3.871C80.4,70.685,76.847,65.654,71.787,63.483
	L71.787,63.483z M26.207,76.529v1.29H2.981v-1.29c0-6.402,5.209-11.613,11.612-11.613C20.998,64.916,26.207,70.127,26.207,76.529
	L26.207,76.529z M23.626,53.303c0,4.981-4.053,9.033-9.033,9.033c-4.979,0-9.031-4.052-9.031-9.033c0-4.98,4.053-9.031,9.031-9.031
	C19.573,44.271,23.626,48.322,23.626,53.303L23.626,53.303z M57.175,53.303c0-4.98,4.053-9.031,9.031-9.031
	c4.98,0,9.033,4.051,9.033,9.031c0,4.981-4.053,9.033-9.033,9.033C61.228,62.336,57.175,58.284,57.175,53.303L57.175,53.303z
	 M77.819,77.819H54.594v-1.29c0-6.402,5.209-11.613,11.612-11.613c6.404,0,11.613,5.211,11.613,11.613V77.819z M77.819,77.819"/>
<path fill="#8EFDAE" d="M55.884,15.884c0,8.551-6.932,15.484-15.484,15.484c-8.551,0-15.483-6.933-15.483-15.484
	C24.917,7.333,31.849,0.4,40.4,0.4C48.952,0.4,55.884,7.333,55.884,15.884L55.884,15.884z M55.884,15.884"/>
<path fill="#2E3847" d="M41.69,19.755H39.11c-0.712,0-1.29-0.58-1.29-1.29h-2.581c0,2.134,1.736,3.871,3.871,3.871v2.581h2.581
	v-2.581c2.135,0,3.871-1.736,3.871-3.871s-1.736-3.872-3.871-3.872H39.11c-0.712,0-1.29-0.579-1.29-1.29
	c0-0.711,0.578-1.29,1.29-1.29h2.581c0.712,0,1.29,0.579,1.29,1.29h2.581c0-2.134-1.736-3.871-3.871-3.871V6.852H39.11v2.581
	c-2.134,0-3.871,1.737-3.871,3.871s1.736,3.871,3.871,3.871h2.581c0.712,0,1.29,0.58,1.29,1.291
	C42.98,19.176,42.402,19.755,41.69,19.755L41.69,19.755z M41.69,19.755"/>
<rect x="62.336" y="27.497" fill="#2E3847" width="2.58" height="5.162"/>
<path fill="#2E3847" d="M62.336,24.917h2.58V14.593h-2.682l6.553-9.362l6.554,9.362h-2.683v12.903h2.581V17.174h5.059L68.787,0.73
	L57.276,17.174h5.06V24.917z M62.336,24.917"/>
<path fill="#2E3847" d="M60.248,58.465h11.918l-5.96-11.917L60.248,58.465z M64.424,55.884l1.782-3.565l1.784,3.565H64.424z
	 M64.424,55.884"/>
<rect x="5.562" y="35.239" fill="#2E3847" width="2.58" height="2.581"/>
<path fill="#2E3847" d="M5.562,32.658h2.58V22.336H5.459l6.554-9.362l6.553,9.362h-2.683v10.322h2.581v-7.741h5.059L12.014,8.473
	L0.502,24.917h5.06V32.658z M5.562,32.658"/>
<rect x="72.658" y="30.078" fill="#2E3847" width="2.581" height="2.581"/>
<path fill="#2E3847" d="M8.142,53.303c0,3.558,2.894,6.452,6.451,6.452c3.558,0,6.452-2.895,6.452-6.452
	c0-3.557-2.894-6.451-6.452-6.451C11.036,46.852,8.142,49.746,8.142,53.303L8.142,53.303z M18.465,53.303
	c0,2.135-1.738,3.872-3.872,3.872c-2.134,0-3.871-1.737-3.871-3.872c0-2.134,1.737-3.87,3.871-3.87
	C16.728,49.433,18.465,51.169,18.465,53.303L18.465,53.303z M18.465,53.303"/>
<rect x="67.497" y="14.593" fill="#8EFDAE" width="2.581" height="18.065"/>
<rect x="10.723" y="22.336" fill="#8EFDAE" width="2.581" height="15.484"/>
</svg>
