<?xml version="1.0" encoding="utf-8"?>
<!-- Generator: Adobe Illustrator 16.0.0, SVG Export Plug-In . SVG Version: 6.00 Build 0)  -->
<!DOCTYPE svg PUBLIC "-//W3C//DTD SVG 1.1//EN" "http://www.w3.org/Graphics/SVG/1.1/DTD/svg11.dtd">
<svg version="1.1" id="Layer_1" xmlns="http://www.w3.org/2000/svg" xmlns:xlink="http://www.w3.org/1999/xlink" x="0px" y="0px"
	 width="80px" height="80px" viewBox="0 0 80 80" enable-background="new 0 0 80 80" xml:space="preserve">
<path fill="#2E3847" d="M67.176,13.1c-0.481-3.27-1.566-7.031-3.969-9.61C61.3,1.44,58.835,0.4,55.884,0.4
	c-3.957,0-6.422,2.481-7.951,5.254c-0.809-0.056-1.599-0.093-2.371-0.093H35.239c-0.773,0-1.563,0.037-2.372,0.093
	C31.338,2.882,28.874,0.4,24.917,0.4c-2.951,0-5.416,1.04-7.325,3.089c-2.403,2.579-3.486,6.34-3.969,9.61
	C5.219,19.757,0.4,29.671,0.4,40.4c0,10.295,4.491,19.556,11.613,25.94v10.189c0,2.135,1.736,3.871,3.871,3.871h15.484
	c2.134,0,3.871-1.736,3.871-3.871v-1.291h10.322v1.291c0,2.135,1.736,3.871,3.871,3.871h11.613v-2.581H49.433
	c-0.712,0-1.29-0.578-1.29-1.29v-1.398c0.083-0.007,0.16-0.01,0.245-0.016l-0.209-2.573c-0.955,0.079-1.811,0.116-2.617,0.116
	H35.239c-17.788,0-32.258-14.471-32.258-32.258c0-9.073,3.726-17.518,10.305-23.612c-0.065,1.722,0.012,2.916,0.022,3.059
	l2.573-0.183c-0.006-0.099-0.639-9.869,3.604-14.421c1.42-1.522,3.197-2.262,5.433-2.262c6.49,0,7.737,10.361,7.75,10.466
	l2.565-0.287c-0.024-0.216-0.299-2.452-1.229-4.988c0.416-0.017,0.83-0.03,1.236-0.03h10.322c0.406,0,0.82,0.014,1.236,0.03
	c-0.929,2.537-1.205,4.773-1.229,4.988l2.565,0.285c0.012-0.104,1.237-10.464,7.749-10.464c2.235,0,4.012,0.74,5.433,2.264
	c4.242,4.55,3.61,14.322,3.604,14.42l2.573,0.184c0.011-0.144,0.087-1.336,0.022-3.06c6.577,6.093,10.304,14.538,10.304,23.611
	c0,3.958-0.716,7.833-2.126,11.522l2.409,0.922C79.626,48.86,80.4,44.674,80.4,40.4C80.4,29.671,75.582,19.757,67.176,13.1
	L67.176,13.1z M14.593,68.441c5.132,3.788,11.336,6.196,18.065,6.691v1.396c0,0.712-0.578,1.29-1.29,1.29H15.884
	c-0.712,0-1.291-0.578-1.291-1.29V68.441z M14.593,68.441"/>
<path fill="#333333" d="M64.916,80.4h-3.87v-2.581h3.87c0.395,0,0.762-0.186,1.013-0.509l2.038,1.584
	C67.223,79.851,66.112,80.4,64.916,80.4L64.916,80.4z M64.916,80.4"/>
<path fill="#2E3847" d="M48.945,48.497c-0.684-0.235-1.388-0.354-2.094-0.354h-2.58v-2.581h2.58c0.994,0,1.979,0.168,2.935,0.497
	L48.945,48.497z M48.945,48.497"/>
<path fill="#2E3847" d="M52.014,24.917c-2.847,0-5.162,2.314-5.162,5.161c0,2.847,2.315,5.162,5.162,5.162
	c2.846,0,5.161-2.315,5.161-5.162C57.175,27.231,54.859,24.917,52.014,24.917L52.014,24.917z M52.014,32.658
	c-1.424,0-2.581-1.158-2.581-2.581c0-1.423,1.157-2.581,2.581-2.581c1.423,0,2.58,1.158,2.58,2.581
	C54.594,31.5,53.437,32.658,52.014,32.658L52.014,32.658z M52.014,32.658"/>
<path fill="#2E3847" d="M41.69,45.562h-7.742c-4.979,0-9.031,4.053-9.031,9.032s4.053,9.032,9.031,9.032h9.099v-2.58h-9.099
	c-3.557,0-6.452-2.895-6.452-6.452s2.895-6.451,6.452-6.451h7.742V45.562z M41.69,45.562"/>
<path fill="#8EFDAE" d="M80.4,61.046c0,10.688-8.665,19.354-19.354,19.354S41.69,71.734,41.69,61.046
	c0-10.689,8.666-19.355,19.355-19.355S80.4,50.356,80.4,61.046L80.4,61.046z M80.4,61.046"/>
<path fill="#2E3847" d="M30.078,54.594c0,2.135,1.736,3.871,3.871,3.871s3.872-1.736,3.872-3.871c0-2.134-1.738-3.87-3.872-3.87
	S30.078,52.46,30.078,54.594L30.078,54.594z M35.239,54.594c0,0.712-0.578,1.29-1.291,1.29c-0.712,0-1.29-0.578-1.29-1.29
	c0-0.713,0.578-1.291,1.29-1.291C34.661,53.303,35.239,53.881,35.239,54.594L35.239,54.594z M35.239,54.594"/>
<path fill="#2E3847" d="M28.788,24.917c-2.847,0-5.162,2.314-5.162,5.161c0,2.847,2.314,5.162,5.162,5.162
	c2.846,0,5.161-2.315,5.161-5.162C33.948,27.231,31.634,24.917,28.788,24.917L28.788,24.917z M28.788,32.658
	c-1.423,0-2.581-1.158-2.581-2.581c0-1.423,1.157-2.581,2.581-2.581c1.423,0,2.581,1.158,2.581,2.581
	C31.369,31.5,30.21,32.658,28.788,32.658L28.788,32.658z M28.788,32.658"/>
<path fill="#2E3847" d="M63.626,59.755h-5.161c-1.423,0-2.581-1.157-2.581-2.58v-1.291c0-1.423,1.158-2.581,2.581-2.581h5.161
	c1.424,0,2.58,1.158,2.58,2.581h2.581c0-2.846-2.314-5.16-5.161-5.16h-1.29v-2.581h-2.581v2.581h-1.29
	c-2.847,0-5.162,2.314-5.162,5.16v1.291c0,2.846,2.315,5.161,5.162,5.161h5.161c1.424,0,2.58,1.157,2.58,2.58v1.29
	c0,1.424-1.156,2.581-2.58,2.581h-5.161c-1.423,0-2.581-1.157-2.581-2.581h-2.581c0,2.848,2.315,5.162,5.162,5.162h1.29v2.581h2.581
	v-2.581h1.29c2.847,0,5.161-2.314,5.161-5.162v-1.29C68.787,62.07,66.473,59.755,63.626,59.755L63.626,59.755z M63.626,59.755"/>
</svg>
