<?xml version="1.0" encoding="utf-8"?>
<!-- Generator: Adobe Illustrator 16.0.0, SVG Export Plug-In . SVG Version: 6.00 Build 0)  -->
<!DOCTYPE svg PUBLIC "-//W3C//DTD SVG 1.1//EN" "http://www.w3.org/Graphics/SVG/1.1/DTD/svg11.dtd">
<svg version="1.1" id="Layer_1" xmlns="http://www.w3.org/2000/svg" xmlns:xlink="http://www.w3.org/1999/xlink" x="0px" y="0px"
	 width="80px" height="80px" viewBox="0 0 80 80" enable-background="new 0 0 80 80" xml:space="preserve">
<path fill="#8EFCAD" d="M77.922,31.469c0,2.851-2.313,5.16-5.164,5.16s-5.164-2.309-5.164-5.16c0-2.852,2.313-5.164,5.164-5.164
	S77.922,28.617,77.922,31.469L77.922,31.469z M77.922,31.469"/>
<path fill="#8EFCAD" d="M13.402,8.242c0,2.852-2.309,5.16-5.16,5.16s-5.16-2.309-5.16-5.16s2.309-5.16,5.16-5.16
	S13.402,5.391,13.402,8.242L13.402,8.242z M13.402,8.242"/>
<path fill="#8EFCAD" d="M57.273,14.692c0,7.839-6.352,14.195-14.195,14.195c-7.836,0-14.191-6.355-14.191-14.195
	c0-7.836,6.355-14.192,14.191-14.192C50.922,0.5,57.273,6.855,57.273,14.692L57.273,14.692z M57.273,14.692"/>
<path fill="#27303E" d="M65.891,50.719c1.711-0.398,2.999-1.937,2.999-3.766c0-1.742-1.171-3.203-2.757-3.688
	c-1.117-5.316-5.836-9.219-11.359-9.219c-0.539,0-1.063,0.051-1.586,0.121c-2.203-2.535-5.359-3.992-8.734-3.992
	c-3.844,0-7.426,1.941-9.578,5.086c-2.039-1.613-4.59-2.504-7.199-2.504c-5.965,0-10.891,4.524-11.535,10.32h-0.156
	c-2.133,0-3.871,1.742-3.871,3.875c0,1.829,1.285,3.367,2.997,3.766l-1.556,2.727c-1.788,3.125-2.733,6.68-2.733,10.281
	c0,5.25,2.511,10.266,6.71,13.422c2.887,2.164,6.461,3.352,10.066,3.352h25.809c3.602,0,7.173-1.188,10.063-3.352
	c4.203-3.156,6.711-8.172,6.711-13.422c0-3.602-0.945-7.156-2.734-10.281L65.891,50.719z M63.422,43.078H46.125
	c1.117-3.758,4.602-6.449,8.648-6.449S62.305,39.32,63.422,43.078L63.422,43.078z M34.129,37.921c3.536,0,6.676,2.055,8.152,5.157
	H25.98C27.449,39.977,30.59,37.921,34.129,37.921L34.129,37.921z M44.453,32.758c2.188,0,4.25,0.789,5.875,2.188
	c-2.766,1.148-5.008,3.329-6.211,6.094c-1.453-2.453-3.762-4.289-6.477-5.148C39.34,33.934,41.813,32.758,44.453,32.758
	L44.453,32.758z M27.676,35.34c1.055,0,2.074,0.18,3.035,0.52c-3.469,1.07-6.297,3.715-7.532,7.219h-4.433
	C19.379,38.711,23.137,35.34,27.676,35.34L27.676,35.34z M61.922,75.078c-2.445,1.836-5.469,2.844-8.516,2.844H27.598
	c-3.051,0-6.074-1.008-8.516-2.844c-3.558-2.664-5.68-6.906-5.68-11.352c0-3.156,0.828-6.266,2.391-9.007l2.23-3.899h3.121v-2.578
	h-5.16c-0.711,0-1.29-0.578-1.29-1.289s0.579-1.289,1.29-1.289h49.031c0.711,0,1.289,0.578,1.289,1.289s-0.578,1.289-1.289,1.289
	H23.727v2.578h39.25l2.227,3.899c1.563,2.741,2.391,5.851,2.391,9.007C67.594,68.172,65.477,72.414,61.922,75.078L61.922,75.078z
	 M61.922,75.078"/>
<path fill="#27303E" d="M60.367,51.453l-2.242,1.281l2.602,4.548c1.117,1.96,1.711,4.187,1.711,6.444
	c0,2.828-1.352,5.524-3.617,7.227c-0.289,0.219-0.586,0.414-0.898,0.594l1.289,2.234c0.398-0.227,0.789-0.484,1.163-0.766
	c2.907-2.18,4.642-5.656,4.642-9.289c0-2.71-0.711-5.375-2.047-7.719L60.367,51.453z M60.367,51.453"/>
<path fill="#27303E" d="M53.406,72.758v2.578c0.969,0,1.945-0.125,2.898-0.367l-0.648-2.5
	C54.922,72.657,54.156,72.758,53.406,72.758L53.406,72.758z M53.406,72.758"/>
<path fill="#27303E" d="M44.374,18.563h-2.585c-0.711,0-1.289-0.579-1.289-1.29h-2.579c0,2.133,1.735,3.871,3.868,3.871v2.582h2.585
	v-2.582c2.134,0,3.868-1.738,3.868-3.871c0-2.133-1.734-3.871-3.868-3.871h-2.585c-0.711,0-1.289-0.578-1.289-1.289
	s0.578-1.292,1.289-1.292h2.585c0.704,0,1.29,0.582,1.29,1.292h2.578c0-2.136-1.734-3.871-3.868-3.871V5.661h-2.585v2.582
	c-2.133,0-3.868,1.735-3.868,3.871c0,2.133,1.735,3.871,3.868,3.871h2.585c0.704,0,1.29,0.578,1.29,1.289
	S45.078,18.563,44.374,18.563L44.374,18.563z M44.374,18.563"/>
<rect x="6.953" y="0.5" fill="#27303E" width="2.578" height="3.871"/>
<path fill="#27303E" d="M6.418,4.594L4.594,6.418L1.855,3.68L3.68,1.855L6.418,4.594z M6.418,4.594"/>
<rect x="0.5" y="6.953" fill="#27303E" width="3.871" height="2.578"/>
<path fill="#27303E" d="M6.418,11.891L3.68,14.629l-1.824-1.824l2.738-2.738L6.418,11.891z M6.418,11.891"/>
<rect x="6.953" y="12.113" fill="#27303E" width="2.578" height="3.871"/>
<path fill="#27303E" d="M14.629,12.805l-1.824,1.824l-2.738-2.738l1.824-1.824L14.629,12.805z M14.629,12.805"/>
<rect x="12.113" y="6.953" fill="#27303E" width="3.871" height="2.578"/>
<path fill="#27303E" d="M14.629,3.68l-2.738,2.738l-1.824-1.824l2.738-2.738L14.629,3.68z M14.629,3.68"/>
<rect x="71.469" y="23.727" fill="#27303E" width="2.578" height="3.871"/>
<path fill="#27303E" d="M70.93,27.824l-1.82,1.824l-2.742-2.738l1.828-1.824L70.93,27.824z M70.93,27.824"/>
<rect x="65.016" y="30.176" fill="#27303E" width="3.874" height="2.582"/>
<path fill="#27303E" d="M70.93,35.113l-2.734,2.738l-1.828-1.824l2.742-2.738L70.93,35.113z M70.93,35.113"/>
<rect x="71.469" y="35.34" fill="#27303E" width="2.578" height="3.871"/>
<path fill="#27303E" d="M79.141,36.031l-1.82,1.824l-2.742-2.738l1.828-1.824L79.141,36.031z M79.141,36.031"/>
<rect x="76.626" y="30.176" fill="#27303E" width="3.874" height="2.582"/>
<path fill="#27303E" d="M79.142,26.906l-2.735,2.735l-1.827-1.825l2.741-2.738L79.142,26.906z M79.142,26.906"/>
<rect x="18.566" y="19.855" fill="#27303E" width="2.579" height="2.582"/>
<rect x="18.566" y="25.016" fill="#27303E" width="2.579" height="2.582"/>
<rect x="21.145" y="22.437" fill="#27303E" width="2.582" height="2.579"/>
<rect x="15.984" y="22.437" fill="#27303E" width="2.582" height="2.579"/>
<rect x="65.016" y="0.5" fill="#27303E" width="2.578" height="2.582"/>
<rect x="65.016" y="5.661" fill="#27303E" width="2.578" height="2.582"/>
<rect x="67.594" y="3.082" fill="#27303E" width="2.586" height="2.579"/>
<rect x="62.438" y="3.082" fill="#27303E" width="2.578" height="2.579"/>
</svg>
