<?xml version="1.0" encoding="utf-8"?>
<!-- Generator: Adobe Illustrator 16.0.0, SVG Export Plug-In . SVG Version: 6.00 Build 0)  -->
<!DOCTYPE svg PUBLIC "-//W3C//DTD SVG 1.1//EN" "http://www.w3.org/Graphics/SVG/1.1/DTD/svg11.dtd">
<svg version="1.1" id="Layer_1" xmlns="http://www.w3.org/2000/svg" xmlns:xlink="http://www.w3.org/1999/xlink" x="0px" y="0px"
	 width="80px" height="80px" viewBox="0 0 80 80" enable-background="new 0 0 80 80" xml:space="preserve">
<path fill="#8EFDAE" d="M77.82,57.175c0,2.851-2.311,5.161-5.162,5.161c-2.851,0-5.162-2.311-5.162-5.161
	c0-2.852,2.312-5.162,5.162-5.162C75.51,52.013,77.82,54.323,77.82,57.175L77.82,57.175z M77.82,57.175"/>
<path fill="#8EFDAE" d="M13.303,72.658c0,2.852-2.31,5.162-5.161,5.162c-2.851,0-5.161-2.311-5.161-5.162
	c0-2.851,2.31-5.162,5.161-5.162C10.993,67.496,13.303,69.808,13.303,72.658L13.303,72.658z M13.303,72.658"/>
<path fill="#8EFDAE" d="M54.595,66.206c0,7.841-6.356,14.194-14.195,14.194c-7.839,0-14.194-6.354-14.194-14.194
	c0-7.838,6.355-14.193,14.194-14.193C48.238,52.013,54.595,58.368,54.595,66.206L54.595,66.206z M54.595,66.206"/>
<path fill="#2E3847" d="M72.658,39.347v-2.817h2.58v-1.29C75.238,16.029,59.611,0.4,40.4,0.4C21.19,0.4,5.563,16.029,5.563,35.24
	v1.29h2.58v2.817c-1.499,0.535-2.58,1.954-2.58,3.634c0,2.136,1.736,3.872,3.87,3.872c2.135,0,3.871-1.736,3.871-3.872
	c0-1.68-1.083-3.099-2.581-3.634v-2.817h15.484v2.817c-1.497,0.535-2.58,1.954-2.58,3.634c0,2.136,1.736,3.872,3.871,3.872
	c2.134,0,3.872-1.736,3.872-3.872c0-1.68-1.083-3.099-2.581-3.634v-2.817H39.11v18.065h-1.29c-3.558,0-6.452,2.893-6.452,6.452
	c0,3.556,2.895,6.449,6.452,6.449h5.16c2.136,0,3.872,1.738,3.872,3.872s-1.736,3.87-3.872,3.87h-5.16
	c-2.135,0-3.873-1.736-3.873-3.87h-2.579c0,3.557,2.895,6.452,6.452,6.452h1.29v2.58h2.58v-2.58h1.29
	c3.559,0,6.452-2.896,6.452-6.452c0-3.559-2.894-6.452-6.452-6.452h-5.16c-2.135,0-3.873-1.735-3.873-3.869
	c0-2.137,1.738-3.872,3.873-3.872h5.16c2.136,0,3.872,1.735,3.872,3.872h2.58c0-3.56-2.894-6.452-6.452-6.452h-1.29V36.529h10.322
	v2.817c-1.497,0.535-2.58,1.954-2.58,3.634c0,2.136,1.735,3.872,3.872,3.872c2.134,0,3.87-1.736,3.87-3.872
	c0-1.68-1.082-3.099-2.58-3.634v-2.817h15.484v2.817c-1.5,0.535-2.583,1.954-2.583,3.634c0,2.136,1.738,3.872,3.872,3.872
	s3.87-1.736,3.87-3.872C75.238,41.301,74.157,39.881,72.658,39.347L72.658,39.347z M9.433,44.272c-0.711,0-1.291-0.578-1.291-1.292
	c0-0.712,0.579-1.29,1.291-1.29c0.711,0,1.29,0.578,1.29,1.29C10.722,43.694,10.144,44.272,9.433,44.272L9.433,44.272z
	 M27.497,44.272c-0.71,0-1.291-0.578-1.291-1.292c0-0.712,0.581-1.29,1.291-1.29c0.711,0,1.291,0.578,1.291,1.29
	C28.788,43.694,28.208,44.272,27.497,44.272L27.497,44.272z M53.305,44.272c-0.711,0-1.292-0.578-1.292-1.292
	c0-0.712,0.581-1.29,1.292-1.29s1.29,0.578,1.29,1.29C54.595,43.694,54.016,44.272,53.305,44.272L53.305,44.272z M36.477,3.229
	l-1.226,1.772c-5.917,8.543-9.045,18.555-9.045,28.947H8.167C8.795,18.073,20.952,5.12,36.477,3.229L36.477,3.229z M39.11,33.948
	H28.788c0-9.865,2.968-19.369,8.584-27.479l2.403-3.474c0.208-0.002,0.416-0.014,0.625-0.014c0.21,0,0.417,0.012,0.625,0.014
	l2.405,3.474c5.617,8.11,8.583,17.614,8.583,27.479H39.11z M45.551,4.999l-1.227-1.771c15.522,1.892,27.68,14.845,28.31,30.72
	H54.595C54.595,23.556,51.469,13.544,45.551,4.999L45.551,4.999z M71.368,44.272c-0.711,0-1.289-0.578-1.289-1.292
	c0-0.712,0.578-1.29,1.289-1.29s1.29,0.578,1.29,1.29C72.658,43.694,72.079,44.272,71.368,44.272L71.368,44.272z M71.368,44.272"/>
<path fill="#2E3847" d="M67.518,25.912l-2.485,0.692c0.22,0.795,0.414,1.612,0.572,2.429l2.532-0.498
	C67.964,27.654,67.758,26.772,67.518,25.912L67.518,25.912z M67.518,25.912"/>
<path fill="#2E3847" d="M58.066,10.088l-1.785,1.862c3.516,3.376,6.263,7.581,7.947,12.161l2.422-0.891
	C64.832,18.275,61.864,13.733,58.066,10.088L58.066,10.088z M58.066,10.088"/>
<rect x="71.368" y="49.432" fill="#2E3847" width="2.58" height="3.872"/>
<path fill="#2E3847" d="M70.836,53.523l-1.826,1.823l-2.736-2.735l1.823-1.826L70.836,53.523z M70.836,53.523"/>
<rect x="64.916" y="55.884" fill="#2E3847" width="3.872" height="2.58"/>
<path fill="#2E3847" d="M70.832,60.823l-2.736,2.736l-1.826-1.823L69.009,59L70.832,60.823z M70.832,60.823"/>
<rect x="71.368" y="61.047" fill="#2E3847" width="2.58" height="3.869"/>
<path fill="#2E3847" d="M79.042,61.735l-1.822,1.823l-2.739-2.735L76.306,59L79.042,61.735z M79.042,61.735"/>
<rect x="76.528" y="55.884" fill="#2E3847" width="3.872" height="2.58"/>
<path fill="#2E3847" d="M79.044,52.613l-2.736,2.739l-1.826-1.826l2.739-2.736L79.044,52.613z M79.044,52.613"/>
<rect x="57.175" y="68.788" fill="#2E3847" width="2.579" height="2.58"/>
<rect x="57.175" y="73.948" fill="#2E3847" width="2.579" height="2.58"/>
<rect x="59.754" y="71.368" fill="#2E3847" width="2.582" height="2.58"/>
<rect x="54.595" y="71.368" fill="#2E3847" width="2.58" height="2.58"/>
<rect x="6.853" y="64.916" fill="#2E3847" width="2.58" height="3.872"/>
<path fill="#2E3847" d="M6.321,69.01l-1.826,1.826l-2.736-2.738l1.824-1.824L6.321,69.01z M6.321,69.01"/>
<rect x="0.4" y="71.368" fill="#2E3847" width="3.871" height="2.58"/>
<path fill="#2E3847" d="M6.311,76.307l-2.737,2.736L1.749,77.22l2.738-2.739L6.311,76.307z M6.311,76.307"/>
<rect x="6.853" y="76.528" fill="#2E3847" width="2.58" height="3.872"/>
<path fill="#2E3847" d="M14.53,77.219l-1.825,1.823l-2.736-2.735l1.823-1.826L14.53,77.219z M14.53,77.219"/>
<rect x="12.014" y="71.368" fill="#2E3847" width="3.871" height="2.58"/>
<path fill="#2E3847" d="M14.533,68.096l-2.738,2.739L9.971,69.01l2.738-2.736L14.533,68.096z M14.533,68.096"/>
<rect x="13.303" y="52.013" fill="#2E3847" width="2.581" height="2.582"/>
<rect x="13.303" y="57.175" fill="#2E3847" width="2.581" height="2.579"/>
<rect x="15.884" y="54.595" fill="#2E3847" width="2.581" height="2.58"/>
<rect x="10.722" y="54.595" fill="#2E3847" width="2.581" height="2.58"/>
<rect x="22.336" y="63.627" fill="#2E3847" width="2.58" height="2.579"/>
<rect x="22.336" y="68.788" fill="#2E3847" width="2.58" height="2.58"/>
<rect x="24.917" y="66.206" fill="#2E3847" width="2.581" height="2.582"/>
<rect x="19.755" y="66.206" fill="#2E3847" width="2.581" height="2.582"/>
</svg>
